<?xml version="1.0" encoding="UTF-8"?>
<svg version="1.1" viewBox="0 0 1600 1600" width="1280" height="1280" xmlns="http://www.w3.org/2000/svg">
<path transform="translate(0)" d="m0 0h1600v1600h-1600v-1600z" fill="#FDFDFD"/>
<path transform="translate(705 212)" d="m0 0c1.11-0.0097 2.21-0.0194 3.35-0.0294 3.57-0.0248 7.14-0.0375 10.7-0.0448 1.22-0.00262 2.45-0.00524 3.71-0.00793 20.7-0.00474 40.8 1.29 61.3 4.32 2.34 0.317 4.68 0.632 7.02 0.945 47.9 6.64 96.8 21.1 140 43.4 0.736 0.38 1.47 0.76 2.23 1.15 8.13 4.4 15.9 10.4 18.9 19.5 0.809 6.3 1.52 12.4-1.76 18-2.27 2.56-4.62 4.77-7.24 6.96-0.572 0.567-1.14 1.13-1.73 1.72-4.18 3.72-8.47 4.04-13.9 3.74-3.37-0.467-5.89-1.32-9-2.68-1.04-0.453-2.09-0.906-3.16-1.37-1.04-0.465-2.09-0.93-3.16-1.41-0.943-0.417-1.89-0.834-2.86-1.26-1.89-0.839-3.77-1.68-5.66-2.53-42.6-19.1-86-33-132-38.2-1.03-0.117-2.06-0.234-3.11-0.355-44.2-4.76-90.4-2.77-134 6.35-0.948 0.193-1.9 0.386-2.87 0.585-54.1 11.1-106 33.4-150 66.4-0.665 0.495-1.33 0.99-2.01 1.5-7.43 5.58-14.4 11.5-21.2 17.9-2.5 2.33-5.03 4.6-7.6 6.85-9.65 8.69-19 17.8-27 28-2.02 2.55-4.12 5.01-6.25 7.46-5.39 6.23-10.2 12.7-14.8 19.6-1.18 1.76-2.37 3.51-3.57 5.26-34.9 51.3-54.1 109-64.2 170-0.137 0.824-0.274 1.65-0.415 2.5-0.334 2.01-0.667 4.02-1 6.03 1.51 0.0088 1.51 0.0088 3.05 0.0178 9.55 0.0575 19.1 0.13 28.6 0.218 4.91 0.0445 9.81 0.0838 14.7 0.111 4.75 0.0263 9.49 0.0668 14.2 0.117 1.8 0.0165 3.6 0.0281 5.4 0.0344 22.7 0.0876 45.5 3.9 62.7 20.1 16.3 17.7 23.2 37.6 22.2 61.4-1.6 20.8-11.2 37-26.5 50.7-11.6 9.9-25.8 14.4-40.8 14.5-1.39 0.0309-1.39 0.0309-2.8 0.0625-8.77 0.0499-14.6-2.21-21.1-8.23-4.29-4.94-6.2-10.5-5.87-17.1 1.05-6.66 3.81-13.3 8.81-17.9 5.96-3.78 11.4-5.1 18.4-5.5 6.34-0.435 10.2-1.53 14.6-6.46 4.71-6.06 6.84-10.4 6.7-18.1-0.921-7.03-4.9-12.6-9.39-18v-2c-6.41-2.83-12.5-3.15-19.5-3.11-0.83-1.46e-4 -1.66-2.92e-4 -2.51-4.43e-4 -2.73 6.93e-4 -5.45 0.00846-8.18 0.0163-1.9 0.00187-3.79 0.00329-5.69 0.00429-4.98 0.00381-9.96 0.0136-14.9 0.0247-5.09 0.0102-10.2 0.0148-15.3 0.0198-9.97 0.0107-19.9 0.0278-29.9 0.0488 0.00999 1.3 0.00999 1.3 0.0202 2.63 0.0605 8.25 0.106 16.5 0.135 24.8 0.0155 4.24 0.0366 8.48 0.0709 12.7 0.033 4.1 0.0506 8.21 0.0583 12.3 0.00548 1.55 0.0162 3.11 0.0326 4.66 0.162 16-2.83 29.7-8.5 44.7-0.524 1.41-1.05 2.83-1.57 4.24-1.73 4.66-3.48 9.3-5.24 13.9-0.313 0.827-0.626 1.65-0.949 2.5-3 7.92-6.02 15.8-9.05 23.8-4.57 11.9-9.05 23.9-13.5 35.9-4.58 12.4-9.27 24.7-14 37.1-2.87 7.43-5.63 14.9-8.22 22.4-2.26 6.52-4.77 12.9-7.26 19.4 1.26-0.00888 2.52-0.0178 3.82-0.0269 11.9-0.0812 23.8-0.141 35.7-0.18 6.11-0.0209 12.2-0.0491 18.3-0.0945 5.9-0.0435 11.8-0.0674 17.7-0.0778 2.25-0.00738 4.5-0.0218 6.75-0.0434 3.16-0.0291 6.31-0.033 9.46-0.0312 0.925-0.0144 1.85-0.0288 2.8-0.0436 5.97 0.0377 10.5 1.1 15.5 4.5 2.24 2.44 2.24 2.44 3.88 5 0.554 0.846 1.11 1.69 1.68 2.56 5.4 9.11 3.89 18 1.41 28-0.448 1.72-0.448 1.72-0.905 3.47-0.461 1.84-0.461 1.84-0.93 3.71-0.843 3.36-1.7 6.71-2.57 10.1-0.583 2.25-1.16 4.51-1.74 6.76-0.2 0.777-0.4 1.55-0.606 2.35-0.406 1.58-0.812 3.16-1.22 4.74-0.984 3.82-1.97 7.64-2.97 11.5-0.186 0.715-0.372 1.43-0.564 2.17-0.503 1.93-1.01 3.87-1.52 5.8-1.16 4.59-2.05 9.24-2.94 13.9 0.719 0.00365 1.44 0.00729 2.18 0.011 6.81 0.038 13.6 0.095 20.4 0.173 3.5 0.0393 7 0.0716 10.5 0.0871 4.03 0.0182 8.07 0.0682 12.1 0.12 1.24 0.00123 2.49 0.00246 3.77 0.00372 8.65 0.144 15.4 1.18 21.8 7.29 5.49 8.32 7.44 15.2 6.19 25.3-1.75 5.98-6.88 10.7-12 14-6.25 2.3-12.2 2.34-18.8 2.41-1.68 0.029-1.68 0.029-3.4 0.0587-3.57 0.0595-7.13 0.106-10.7 0.152-2.43 0.0382-4.85 0.0773-7.28 0.117-5.93 0.0958-11.9 0.181-17.8 0.258-1.62 4.86 0.925 8.49 3 13 0.951 1.89 1.92 3.78 2.89 5.66 12.6 24.5 9.98 47.3 8.61 74.1-0.251 4.93-0.5 9.86-0.743 14.8-0.097 1.94-0.198 3.88-0.299 5.82-1.8 16.8-1.8 16.8 2.54 32.6 5.11 5.13 10.4 8.79 17.8 9.23 1.46-0.00297 2.93-0.0184 4.39-0.0443 0.792-0.00751 1.58-0.015 2.4-0.0227 8.56-0.115 17.1-0.588 25.6-1.11 1.71-0.102 3.42-0.203 5.12-0.304 4.52-0.269 9.05-0.544 13.6-0.822 2.82-0.172 5.63-0.343 8.45-0.512 28.5-1.72 56.9-3.64 85.3-5.79 6.03-0.454 12.1-0.867 18.1-1.24 1.1-0.0677 1.1-0.0677 2.23-0.137 3.22-0.196 6.43-0.384 9.65-0.559 36.8-2.17 69.8-17.8 94.8-44.9 3.16-3.66 5.97-7.58 8.68-11.6 5.06-7.36 11.1-12.6 20-14.7 5.53-0.901 10.1-0.564 14.8 2.5 7.04 6.35 11 12.6 11.6 22.2-0.593 20-20.9 37-34.4 49.8-21.4 19.9-48.5 32.7-76.2 41.1-1.07 0.327-2.15 0.655-3.25 0.992-9.69 2.67-19.8 3.7-29.7 5.01 0.62 8.64 1.4 17.2 2.34 25.9 0.261 2.44 0.522 4.88 0.783 7.32 0.405 3.76 0.81 7.53 1.22 11.3 1.41 13.1 2.78 26.2 3.85 39.3 0.0836 1 0.167 2.01 0.253 3.04 1.62 20.6 1.62 20.6-4.07 27.9-5.69 6.03-10.6 7.56-18.9 7.81-8.51-0.27-12.3-2.08-18.2-8.19-6.72-7.33-7.03-17.9-7.97-27.4-0.145-1.37-0.29-2.75-0.436-4.12-0.383-3.61-0.753-7.23-1.12-10.8-0.365-3.57-0.742-7.13-1.12-10.7-1.19-11.3-2.35-22.6-3.46-34-0.137-1.39-0.274-2.79-0.411-4.18-0.257-2.62-0.51-5.24-0.761-7.86-0.114-1.17-0.228-2.33-0.346-3.53-0.147-1.53-0.147-1.53-0.297-3.09-0.287-2.3-0.707-4.44-1.33-6.67-0.572 0.0449-1.14 0.0898-1.73 0.136-17 1.32-33.9 2.43-50.9 3.49-12.7 0.793-25.4 1.67-38.1 2.65-61 4.73-61 4.73-84.2-13.8-1.68-1.48-3.35-2.98-5-4.5-0.727-0.636-1.45-1.27-2.2-1.93-10.9-10-19-27.5-19.9-42.4-0.0257-2.74-0.0445-5.47-0.0422-8.21 8.06e-4 -1.05 0.00161-2.1 0.00244-3.18 0.097-13 1.15-25.9 2.19-38.8 0.288-3.68 0.574-7.36 0.856-11 0.174-2.26 0.352-4.52 0.534-6.78 1.54-19.6-5.67-33.9-13.8-51.4-3.26-7.06-6.49-14.1-9.62-21.2-0.369-0.832-0.738-1.66-1.12-2.52-7.29-16.7-7.29-16.7-4.88-25.5 0.2-0.928 0.399-1.86 0.605-2.81 0.716-3.27 1.52-6.51 2.33-9.75 0.46-1.88 0.921-3.75 1.38-5.63 1.31-5.35 2.65-10.7 3.99-16 1.16-4.61 2.3-9.22 3.44-13.8 0.674-2.71 1.36-5.42 2.05-8.12 0.421-1.69 0.841-3.39 1.26-5.08 0.197-0.764 0.393-1.53 0.596-2.31 1.2-4.93 1.52-9.34 1.35-14.4-0.808 0.00666-1.62 0.0133-2.45 0.0202-7.68 0.0605-15.4 0.106-23 0.135-3.95 0.0155-7.89 0.0366-11.8 0.0709-3.82 0.033-7.64 0.0506-11.5 0.0583-1.45 0.00547-2.89 0.0162-4.34 0.0326-17.2 0.187-31.6-2.52-44.7-14.4-7.98-8.48-13.8-21.4-14.7-33.1 0.777-14.1 8.42-29 13.4-42 1.32-3.47 2.64-6.94 3.96-10.4 1.37-3.6 2.73-7.2 4.1-10.8 4.53-11.9 9.01-23.9 13.5-35.8 0.559-1.49 0.559-1.49 1.13-3.01 5.31-14.2 10.6-28.4 15.9-42.5 2.65-7.14 5.31-14.3 8.01-21.4 0.563-1.49 1.13-2.98 1.69-4.47 1.06-2.81 2.12-5.61 3.19-8.41 0.476-1.26 0.951-2.52 1.43-3.78l1.26-3.31c1.96-5.73 2.16-11 2.18-17 0.01-1.35 0.01-1.35 0.0203-2.73 0.014-1.96 0.0259-3.91 0.0359-5.87 0.0165-3.12 0.0398-6.24 0.0649-9.36 0.0704-8.87 0.13-17.7 0.182-26.6 0.0322-5.43 0.0736-10.9 0.12-16.3 0.0158-2.05 0.0282-4.1 0.0369-6.15 0.0865-20.1 1.87-40 4.68-59.9 0.107-0.767 0.214-1.53 0.324-2.32 1.71-12.2 3.83-24.2 6.75-36.2 0.605-2.49 1.18-4.98 1.76-7.48 3.19-13.6 7.45-26.8 11.9-40 0.486-1.48 0.486-1.48 0.981-2.98 6.48-19.7 14.4-38.6 24-57 1.12-2.16 2.21-4.34 3.3-6.51 14.1-27.7 32.8-53.4 53.2-76.8 1.04-1.2 2.08-2.4 3.11-3.61 4.56-5.29 9.38-10.3 14.3-15.2 0.76-0.764 1.52-1.53 2.3-2.31 4.2-4.2 8.5-8.23 13-12.1 2.23-1.92 4.4-3.91 6.57-5.89 12.9-11.6 26.6-22.2 41.2-31.6 1.17-0.762 2.34-1.52 3.51-2.29 3.48-2.26 6.98-4.49 10.5-6.71 0.806-0.512 1.61-1.02 2.44-1.55 27.9-17.2 59.2-31.1 90.6-40.4 0.957-0.289 1.91-0.579 2.9-0.877 26.1-7.83 52.1-13.5 79.1-17.1 2.13-0.291 4.26-0.583 6.39-0.875 2.02-0.272 4.03-0.543 6.05-0.812 0.892-0.119 1.78-0.239 2.7-0.362 10.6-1.37 21.1-2.11 31.8-2.19z" fill="#000102"/>
<path transform="translate(887 437)" d="m0 0c5.37 5.02 8.42 10.5 9.14 18 0.0314 1.14 0.0628 2.28 0.0952 3.46 0.0534 1.68 0.0534 1.68 0.108 3.4 0.034 1.41 0.068 2.81 0.103 4.26 0.124 4.5 0.247 8.99 0.375 13.6 24.8 0.495 24.8 0.495 50 1-0.33-0.66-0.66-1.32-1-2-0.355-4.31-0.371-8.62-0.438-12.9-0.0458-1.19-0.0915-2.37-0.139-3.6-0.107-8.48 1.4-14.6 6.58-21.5 6.74-6.34 12-9.45 21.3-9.25 6.14 0.571 9.76 3.75 13.7 8.25 5.29 6.95 8.14 11.3 8.1 20.1-0.00322 1.16-0.00645 2.32-0.00977 3.52-0.00838 1.21-0.0168 2.41-0.0254 3.66-0.00451 1.22-0.00902 2.44-0.0137 3.7-0.0118 3.02-0.0282 6.03-0.0488 9.05 0.6 0.189 1.2 0.378 1.82 0.573 7.44 2.4 15.2 5.25 19.2 12.4 0.42 2.05 0.782 4.11 1.1 6.18 0.171 1.09 0.342 2.17 0.518 3.29 0.126 0.832 0.251 1.66 0.38 2.52 0.927 0.00935 1.85 0.0187 2.81 0.0283 3.47 0.0443 6.95 0.106 10.4 0.179 1.5 0.028 2.99 0.0493 4.49 0.0635 16.9 0.169 16.9 0.169 24.3 6.4 6.64 8.21 7.96 14.8 7.01 25.3-1.19 5.9-5.28 10.5-10 14-4.95 2.44-8.64 3.39-14.2 3.51-0.984 0.0269-0.984 0.0269-1.99 0.0544-2.07 0.0536-4.14 0.0878-6.2 0.121-1.41 0.0332-2.83 0.0677-4.24 0.104-3.44 0.0844-6.88 0.151-10.3 0.209-0.761 10.3-1.11 20.5-1.12 30.8-0.00451 1.14-0.00902 2.28-0.0137 3.45 0.00193 1.07 0.00387 2.15 0.00586 3.26 0.00169 1.44 0.00169 1.44 0.00342 2.91 0.118 2.34 0.465 4.33 1.13 6.57 0.86-0.0236 0.86-0.0236 1.74-0.0476 28.3-0.672 28.3-0.672 37.3 7.05 5.94 6.01 8.29 10.7 8.38 19.3-0.0405 5.98-0.381 11-4.38 15.7-6.03 5.6-11.5 8.2-19.8 8.41-1.29 0.0387-2.58 0.0773-3.92 0.117-1.35 0.0315-2.71 0.0627-4.06 0.0938-1.37 0.0382-2.75 0.0773-4.12 0.117-3.35 0.0942-6.71 0.18-10.1 0.258-0.476 1.08-0.951 2.16-1.44 3.27-0.268 0.608-0.535 1.22-0.811 1.84-0.893 2.14-0.893 2.14-1.69 5.51-1.42 4.52-3.44 7.13-7.19 10-3.49 1.67-7.03 2.65-10.8 3.63-2.29 0.537-2.29 0.537-3.11 2.75-0.106 1.77-0.155 3.54-0.176 5.31-0.0238 1.08-0.0477 2.15-0.0723 3.26-0.0424 2.25-0.0739 4.51-0.0938 6.76-0.231 9.07-1.72 16.7-7.97 23.6-6.07 5.43-11.8 6.58-19.8 6.35-7.02-0.682-11.9-3.27-16.9-8.29-6.33-8.79-6.3-19.7-6.62-30.2-0.0387-1.05-0.0773-2.09-0.117-3.17-0.093-2.55-0.179-5.09-0.258-7.64-0.99 0.33-1.98 0.66-3 1-1.42 0.108-2.85 0.166-4.27 0.189-1.29 0.0251-1.29 0.0251-2.6 0.0507-0.922 0.0136-1.84 0.0272-2.79 0.0411-0.948 0.0184-1.9 0.0368-2.87 0.0558-4.06 0.0788-8.12 0.147-12.2 0.215-2.96 0.0516-5.92 0.109-8.88 0.167-0.926 0.0136-1.85 0.0272-2.81 0.0411-0.851 0.0167-1.7 0.0334-2.58 0.0507-0.753 0.0125-1.51 0.0251-2.28 0.038-1.76-0.0329-1.76-0.0329-2.73 1.15-0.122 2.14-0.18 4.28-0.211 6.41-0.0284 1.32-0.0567 2.64-0.0859 4-0.041 2.1-0.0779 4.2-0.104 6.3-0.0279 2.03-0.0738 4.05-0.122 6.08-0.0198 1.21-0.0396 2.43-0.0601 3.68-0.692 5.87-2.65 10.5-7.29 14.3-0.657 0.563-1.31 1.13-1.99 1.71-6.53 4.53-13.5 4.04-21.1 3.48-5.52-1.16-10.4-4.73-14-9-3.83-7.01-5.17-14.1-4.86-22 0.283-8.07 0.283-8.07-1.14-16-3.83-3.74-8.07-5.11-13-7-3.4-2.66-5.49-5.75-7.11-9.74-1.35-3.17-2.63-5.64-4.89-8.26-4.27-1.4-8.3-1.14-12.8-0.875-9.18 0.356-15.4-0.176-23.2-5.12-0.928-0.557-1.86-1.11-2.81-1.69-4.59-4.85-7.45-10.7-7.81-17.4 0.46-7.93 5.03-14.1 10.7-19.4 11.3-8.69 23.8-6.5 38-6.5-0.33-15.5-0.66-31-1-47h-21c-9.63-0.953-14.7-3.47-21.3-10.4-4.2-6.38-5.9-11.9-4.69-19.6 2.39-6.76 5.73-12.5 12.1-16.2 10.4-4.67 23.9-4.02 34.9-1.82 0.206-0.784 0.413-1.57 0.625-2.38 1.87-4.94 4.53-9.19 7.38-13.6 0.577-0.928 1.15-1.86 1.75-2.81 4.19-4.07 9.75-6.36 15.2-8.19 0.00411-0.725 0.00822-1.45 0.0125-2.2 0.0333-3.35 0.104-6.7 0.175-10.1 0.0087-1.71 0.0087-1.71 0.0176-3.45 0.228-8.91 1.71-17.7 7.8-24.6 10.1-9.38 21.2-11.3 32.2-2.44z" fill="#000102"/>
<path transform="translate(829 994)" d="m0 0c0.841-0.00205 1.68-0.00411 2.55-0.00622 2.83-0.00567 5.66-0.00421 8.49-0.00279 2.05-0.00258 4.09-0.0056 6.14-9e-3 5.63-0.00808 11.3-0.00986 16.9-0.0106 6.07-0.00185 12.1-0.0094 18.2-0.0161 14-0.0143 27.9-0.0201 41.9-0.0247 6.9-0.00234 13.8-0.00594 20.7-0.0097 23.6-0.0128 47.2-0.0236 70.8-0.027 1.48-2.22e-4 2.96-4.43e-4 4.45-6.65e-4 1.49-2.21e-4 2.97-4.41e-4 4.46-6.61e-4 2.98-4.43e-4 5.96-8.9e-4 8.94-0.00134 1.11-1.64e-4 1.11-1.64e-4 2.24-3.31e-4 24-0.00363 47.9-0.0196 71.9-0.0429 25.3-0.0246 50.7-0.0383 76-0.0395 2.78-1.71e-4 5.56-3.87e-4 8.34-6.34e-4 1.03-8.37e-5 1.03-8.37e-5 2.08-1.69e-4 11-0.00115 22.1-0.0122 33.1-0.0267 11.1-0.0144 22.2-0.0174 33.2-0.00956 6 0.00392 12 0.00293 18-0.0111 5.49-0.0127 11-0.0116 16.5 5.91e-4 1.99 0.00197 3.98-0.00117 5.97-0.00984 2.7-0.011 5.4-0.00364 8.1 0.00839 0.776-0.0076 1.55-0.0152 2.35-0.023 6.89 0.0665 12.5 2.04 17.8 6.79 7.38 8.05 8.35 15.6 8.28 26.2 0.0113 1.39 0.0252 2.79 0.0415 4.18 0.0358 3.65 0.0364 7.29 0.0293 10.9-9.1e-4 3.69 0.032 7.37 0.062 11.1 0.0398 5.42 0.0631 10.8 0.0659 16.3 0.00142 1.77 0.00142 1.77 0.00287 3.59-0.00407 2.19-0.0173 4.38-0.0414 6.56-0.00888 0.965-0.0178 1.93-0.0269 2.92-0.0117 0.83-0.0233 1.66-0.0354 2.52 0.104 2.55 0.536 4.89 1.1 7.38 0.867 0.00935 1.73 0.0187 2.63 0.0283 3.25 0.0443 6.5 0.106 9.75 0.179 1.4 0.028 2.8 0.0493 4.2 0.0635 7.99 0.0855 14.5 0.292 21.4 4.73v2h2c1.69 2.27 1.69 2.27 3.56 5.25 0.62 0.975 1.24 1.95 1.88 2.95 2.67 4.79 3.11 9.34 2.56 14.8-2.26 7.16-6.32 12.8-13 16.4-6.81 3.26-14.3 2.79-21.7 2.79-1.13 0.00333-2.25 0.00666-3.41 0.0101-2.38 0.00505-4.76 0.00741-7.14 0.00725-3.63 0.00219-7.25 0.0204-10.9 0.0393-2.32 0.00293-4.63 0.00492-6.95 0.00586-1.08 0.00719-2.15 0.0144-3.26 0.0218-10-0.0302-17.9-1.57-25.7-8.25-8.44-9.36-7.27-22.9-7.16-34.7 0.00629-1.48 0.0115-2.96 0.0158-4.44 0.0132-3.86 0.0376-7.73 0.0654-11.6 0.0435-6.21 0.0728-12.4 0.096-18.6 0.0102-2.17 0.0273-4.33 0.045-6.5 0.00653-1.31 0.0131-2.61 0.0198-3.96 0.00825-1.15 0.0165-2.31 0.025-3.49 0.0807-2.68 0.0807-2.68-1.11-4.71-0.978-9.77e-4 -1.96-0.00195-2.96-0.00296-58-0.0581-116-0.132-174-0.226-6.96-0.0113-13.9-0.0224-20.9-0.0335-0.692-0.0011-1.38-0.00221-2.1-0.00334-22.4-0.0357-44.9-0.0616-67.3-0.0826-23.7-0.0222-47.4-0.0554-71.2-0.1-14.2-0.0265-28.4-0.0442-42.6-0.0506-9.74-0.00525-19.5-0.0215-29.2-0.0463-5.62-0.014-11.2-0.0232-16.9-0.0193-5.15 0.00341-10.3-0.00694-15.4-0.0282-1.86-0.00527-3.72-0.0055-5.58-1.6e-4 -13.3 0.0341-22.8-0.41-32.8-10.1-4.81-5.29-5.73-10.5-5.53-17.5 1.29-8.81 6.49-14.9 13.4-20.1 5.25-3.06 10.4-2.89 16.3-2.88z" fill="#000102"/>
<path transform="translate(1221 799)" d="m0 0c2.9 0.00896 5.79 0.0179 8.69 0.0267 0.719 0.0022 1.44 0.00441 2.18 0.00668 11.8 0.0358 23.6 0.0605 35.4 0.0812 12.2 0.0217 24.4 0.0547 36.6 0.0984 6.82 0.024 13.6 0.043 20.4 0.0489 6.36 0.00602 12.7 0.0259 19.1 0.0567 2.33 0.00881 4.67 0.0125 7 0.0107 3.18-0.00164 6.35 0.015 9.53 0.0363 1.39-0.00727 1.39-0.00727 2.81-0.0147 5.8 0.0644 9.3 0.879 13.6 4.99 6.28 7.49 9.71 13.4 9.34 23.4-2.38 8.06-7.09 12.8-14 17-4.58 2.29-9.19 2.12-14.2 2.11-0.843 0.00175-1.69 0.00351-2.56 0.00531-2.84 0.00468-5.69 0.00219-8.53-2.34e-4 -2.05 0.00187-4.11 0.00417-6.16 0.00687-5.66 0.00614-11.3 0.00598-17 0.00481-6.09-2.04e-4 -12.2 0.00531-18.3 0.0101-11.9 0.00832-23.9 0.0111-35.8 0.0116-9.71 4.59e-4 -19.4 0.00252-29.1 0.0057-2.79 8.98e-4 -5.58 0.00179-8.38 0.00267-1.04 3.32e-4 -1.04 3.32e-4 -2.1 6.7e-4 -19.5 0.00616-39.1 0.0101-58.6 0.00966-0.737-1.56e-5 -1.47-3.12e-5 -2.23-4.72e-5 -3.73-8.31e-5 -7.47-1.82e-4 -11.2-2.85e-4 -0.741-1.99e-5 -1.48-3.99e-5 -2.25-6.04e-5 -1.5-4.04e-5 -3-8.22e-5 -4.5-1.25e-4 -23.3-6.13e-4 -46.7 0.00689-70 0.0206-26.2 0.0154-52.4 0.024-78.6 0.023-2.79-7.46e-5 -5.59-1.23e-4 -8.38-1.54e-4 -0.688-1.17e-5 -1.38-2.33e-5 -2.08-3.53e-5 -11.1-3.08e-5 -22.1 0.00636-33.2 0.015-11.1 0.00847-22.3 0.0093-33.4 0.00289-6.03-0.00327-12.1-0.00329-18.1 0.00535-5.52 0.00783-11 0.00647-16.6-0.00228-2-0.00154-4 3.11e-4 -6 0.00586-2.71 0.00703-5.42 0.00179-8.14-0.00656-0.779 0.00497-1.56 0.00994-2.36 0.0151-7.96-0.0519-13.6-1.75-19.5-7.28-4.24-4.68-6.57-10.2-7.02-16.5 0.712-7.97 4.71-14.8 10.5-20.2 4.4-3.29 8.13-3.6 13.5-3.58 0.791-0.00579 1.58-0.0116 2.4-0.0176 2.66-0.017 5.31-0.0199 7.97-0.0228 1.9-0.0093 3.81-0.0195 5.71-0.0304 5.19-0.0274 10.4-0.0425 15.6-0.0554 5.48-0.0157 11-0.0425 16.5-0.068 9.26-0.0416 18.5-0.076 27.8-0.105 12.9-0.0408 25.7-0.0936 38.6-0.149 78.3-0.336 157-0.28 235-0.0369z" fill="#000102"/>
<path transform="translate(1323 310)" d="m0 0c1.1-0.00333 2.21-0.00666 3.35-0.0101 2.33-0.00505 4.66-0.00741 6.99-0.00725 3.55-0.00219 7.11-0.0204 10.7-0.0393 2.27-0.00293 4.54-0.00492 6.81-0.00586 1.06-0.00719 2.11-0.0144 3.2-0.0218 8.45 0.026 15.8 0.65 22.5 6.25 5.55 6.03 8.56 11.2 9.31 19.4-0.642 7.31-3.41 12.2-8.01 17.8-7.61 5.82-16.7 5.1-25.8 4.89-2.53-0.0431-5.06-0.0824-7.59-0.117-1.11-0.0243-2.22-0.0487-3.37-0.0737-2.48-0.228-2.48-0.228-3.54 1.07-0.144 2.5-0.225 4.97-0.265 7.47-0.0164 0.782-0.0329 1.56-0.0498 2.37-0.0353 1.7-0.0685 3.41-0.0998 5.11-0.0501 2.7-0.107 5.4-0.166 8.09-0.166 7.67-0.322 15.3-0.469 23-0.0904 4.69-0.19 9.38-0.295 14.1-0.0382 1.79-0.0729 3.58-0.104 5.36-0.0436 2.5-0.0988 5.01-0.157 7.51-0.00994 0.738-0.0199 1.48-0.0301 2.24-0.161 6.1-1.55 10.2-5.43 14.9-0.527 0.663-1.05 1.33-1.6 2.01-6.38 5.09-14.2 5.3-22.1 5.25-1.57 0.00808-1.57 0.00808-3.17 0.0163-3.49 0.0142-6.98 0.00718-10.5 5.29e-5 -2.51 0.00571-5.02 0.0127-7.53 0.0208-6.1 0.0161-12.2 0.018-18.3 0.0128-4.96-0.00405-9.92-0.00259-14.9 0.00275-0.707 7.48e-4 -1.41 0.0015-2.14 0.00227-1.44 0.00153-2.87 0.00307-4.31 0.00461-13.5 0.0137-26.9 0.0083-40.4-0.00319-12.3-0.00994-24.6 0.00302-36.9 0.0269-12.6 0.0244-25.3 0.034-37.9 0.0273-7.09-0.00349-14.2-0.00127-21.3 0.0163-6.67 0.0163-13.3 0.0115-20-0.00731-2.45-0.00369-4.89-5.66e-4 -7.34 0.00989-3.34 0.0132-6.68 0.00169-10-0.016-1.45 0.0144-1.45 0.0144-2.93 0.0291-8.97-0.0976-15.3-3.25-21.7-9.53-3.87-5.33-5.44-10.4-5-17 2.34-8.12 7.11-15.1 14-20 5.57-2.01 10.6-2.3 16.4-2.32 0.92-0.01 1.84-0.0201 2.79-0.0304 3.04-0.0309 6.09-0.0479 9.13-0.0648 2.16-0.0188 4.31-0.0383 6.47-0.0587 5.7-0.0514 11.4-0.0909 17.1-0.128 4.53-0.0315 9.06-0.0713 13.6-0.112 41.5-0.369 82.9-0.381 124 0.176 4.68 0.0623 9.35 0.121 14 0.181 9.05 0.116 18.1 0.234 27.1 0.355-0.00444-0.909-0.00888-1.82-0.0135-2.76-0.0402-8.59-0.0706-17.2-0.0902-25.8-0.0104-4.42-0.0245-8.83-0.0473-13.2-0.0218-4.27-0.0337-8.53-0.0389-12.8-0.00368-1.62-0.0109-3.25-0.0217-4.87-0.0146-2.28-0.0165-4.57-0.0156-6.85-0.00444-1.3-0.00888-2.59-0.0135-3.93 0.521-8.16 2.94-15.4 8.24-21.8 8.51-6.05 17.4-6.16 27.5-6.17z" fill="#000102"/>
<path transform="translate(1119 1093)" d="m0 0c1.11-0.00686 2.22-0.0137 3.36-0.0208 3.67-0.0183 7.34-0.0144 11-0.00874 2.55-0.00456 5.1-0.00987 7.66-0.0159 5.35-0.00894 10.7-0.00673 16.1 0.00343 6.17 0.0115 12.3-0.00257 18.5-0.0294 5.95-0.0249 11.9-0.0273 17.9-0.0209 2.52 1.53e-4 5.05-0.00589 7.57-0.0183 3.54-0.0149 7.07-0.00423 10.6 0.0129 1.04-0.00967 2.08-0.0193 3.15-0.0293 6.26 0.0634 11 0.938 16.2 4.53 2.06 2.15 2.06 2.15 3.44 4.38 0.71 1.09 0.71 1.09 1.43 2.21 2.37 5.07 2.28 10.5 2.32 16.1 0.0124 1.11 0.0124 1.11 0.0251 2.24 0.0173 1.6 0.0325 3.2 0.0458 4.79 0.0211 2.53 0.0481 5.05 0.0767 7.58 0.0696 6.27 0.129 12.5 0.189 18.8 0.0508 5.31 0.106 10.6 0.166 15.9 0.0266 2.49 0.0474 4.99 0.068 7.48 0.0166 1.52 0.0335 3.03 0.0507 4.55 0.00418 0.698 0.00837 1.4 0.0127 2.11-0.226 3.22-0.226 3.22 1.18 5.88 1.58 0.104 3.17 0.138 4.76 0.145 1.55 0.0103 1.55 0.0103 3.12 0.0209 1.14 0.00261 2.28 0.00523 3.46 0.00792 1.19 0.00669 2.39 0.0134 3.62 0.0203 2.6 0.0141 5.21 0.0264 7.81 0.0359 4.12 0.0154 8.25 0.0394 12.4 0.0649 11.7 0.0712 23.5 0.131 35.2 0.182 6.47 0.0284 12.9 0.0638 19.4 0.107 3.42 0.0223 6.85 0.0408 10.3 0.0504 3.83 0.0122 7.66 0.0364 11.5 0.0631 1.12 5.89e-4 2.24 0.00118 3.4 0.00179 16.4 0.151 16.4 0.151 20.9 3.76 1.65 1.74 2.88 3.52 4.15 5.55 0.729 1.08 0.729 1.08 1.47 2.19 4.1 6.94 4.86 13.9 3.53 21.8-2.69 5.86-8.25 11.1-14 14-7.93 1.18-15.8 1.16-23.8 1.16-1.48 0.00464-2.97 0.00966-4.45 0.015-4.01 0.013-8.02 0.0196-12 0.024-2.51 0.00294-5.02 0.00705-7.53 0.0115-7.86 0.0136-15.7 0.0233-23.6 0.0272-9.05 0.00448-18.1 0.0221-27.2 0.051-7.02 0.0216-14 0.0317-21 0.033-4.18 0.00105-8.36 0.00689-12.5 0.0248-3.93 0.0165-7.87 0.0186-11.8 0.00986-1.44-7.67e-4 -2.88 0.00353-4.31 0.0135-10.4 0.0674-19.4-0.356-27.3-7.7-5.16-6.01-5.58-13.7-5.64-21.3-0.0099-0.752-0.0198-1.5-0.03-2.28-0.0315-2.47-0.0563-4.95-0.0811-7.42-0.0206-1.72-0.0416-3.44-0.063-5.16-0.0551-4.52-0.105-9.03-0.153-13.5-0.0503-4.61-0.106-9.22-0.161-13.8-0.107-9.04-0.209-18.1-0.307-27.1-0.99 0.495-0.99 0.495-2 1-2.09 0.102-4.19 0.138-6.28 0.145-0.966 0.00504-0.966 0.00504-1.95 0.0102-2.14 0.00953-4.28 0.0115-6.42 0.0125-1.49 0.00321-2.99 0.00658-4.48 0.0101-3.14 6e-3 -6.28 0.00784-9.42 0.00725-3.99-1.01e-4 -7.98 0.0135-12 0.0308-3.09 0.0112-6.18 0.0131-9.27 0.0126-1.47 0.00117-2.94 0.00553-4.41 0.0133-25.7 0.124-25.7 0.124-35.8-9.24-3.65-4.3-5.22-9.39-5-15 1.26-8.77 6.15-17 12.9-22.6 4.62-2.09 9.03-1.8 14.1-1.78z" fill="#000102"/>
<path transform="translate(653 498)" d="m0 0c12 11.8 20.4 26.1 23.6 42.8 0.227 1.15 0.454 2.31 0.688 3.5 1.75 19.6-1.34 39.6-14 55.1-12.2 14.5-26.6 24.4-45.7 27.4-3.57 0.284-7.11 0.334-10.7 0.312-0.965-0.00491-1.93-0.00983-2.92-0.0149-20.7-0.338-37.9-8.53-52.9-22.7-12.3-12.8-19.5-30.9-19.9-48.7 0.791-21.8 9.3-40.8 25.1-55.9 26.9-23.8 69.1-25.4 96.8-1.81z" fill="#000102"/>
<path transform="translate(1226 212)" d="m0 0c1.82-0.00786 1.82-0.00786 3.67-0.0159 2.55-0.0064 5.1-0.00511 7.65 0.00343 3.89 0.00853 7.78-0.0203 11.7-0.052 2.49-0.00161 4.97-0.00103 7.46 0.00195 1.73-0.0169 1.73-0.0169 3.5-0.034 8.06 0.0692 13.7 1.12 19.7 6.9 0.632 0.828 1.26 1.66 1.91 2.51 0.647 0.822 1.29 1.64 1.96 2.49 4.29 6.78 4.44 13.8 3.66 21.6-1.7 5.7-6.14 9.83-11 13-7.62 3.29-15.4 3.5-23.6 3.62-2.33 0.0507-4.67 0.105-7 0.164-1.53 0.0263-1.53 0.0263-3.09 0.0532-2.3-0.103-2.3-0.103-3.34 1.16-0.119 2-0.167 4.01-0.189 6.01-0.0167 1.29-0.0334 2.58-0.0507 3.91-0.01 1.04-0.01 1.04-0.0202 2.11-0.0211 2.18-0.0481 4.37-0.0767 6.55-0.0598 4.66-0.112 9.32-0.163 14-0.0597 5.35-0.123 10.7-0.192 16.1-0.026 2.12-0.0472 4.25-0.068 6.37-0.0445 4-0.134 8-0.24 12-0.0152 0.713-0.0304 1.43-0.0461 2.16-0.0529 2.16-0.134 4.32-0.222 6.48-0.0439 1.27-0.0877 2.54-0.133 3.85-0.897 5.26-3.57 9.23-7.91 12.3-0.532 0.398-1.06 0.797-1.61 1.21-5.86 2.77-13.1 2.13-19.5 2.14-1.53 0.00745-1.53 0.00745-3.09 0.015-3.36 0.0145-6.72 0.0214-10.1 0.0269-2.34 0.00576-4.69 0.0115-7.03 0.0173-4.91 0.0105-9.82 0.0163-14.7 0.0198-6.28 0.00549-12.6 0.0295-18.8 0.058-4.84 0.0187-9.68 0.0238-14.5 0.0254-2.31 0.00302-4.63 0.011-6.94 0.0242-3.24 0.0171-6.48 0.0152-9.73 0.00869-0.948 0.00921-1.9 0.0184-2.87 0.0279-9.24-0.0575-16.4-2.11-23.1-8.58-4.9-5.31-5.32-10.5-5.14-17.5 1.15-8.07 6.28-13.7 12.2-18.9 5.57-3.3 11.8-3.62 18.1-3.6 0.733-2.92e-4 1.47-5.84e-4 2.22-8.85e-4 2.39 0.00138 4.78 0.0169 7.17 0.0326 1.67 0.00374 3.34 0.00658 5.01 0.00858 4.37 0.0076 8.75 0.0272 13.1 0.0494 4.47 0.0205 8.94 0.0296 13.4 0.0397 8.76 0.0214 17.5 0.0555 26.3 0.0977-0.00222-0.796-0.00444-1.59-0.00673-2.41-0.0202-7.56-0.0353-15.1-0.0451-22.7-0.00518-3.89-0.0122-7.77-0.0236-11.7-0.011-3.76-0.0169-7.52-0.0194-11.3-0.00182-1.42-0.00539-2.85-0.0109-4.27-0.109-29.7-0.109-29.7 5.11-36.7 8.93-8.13 19.2-9.46 30.8-9.43z" fill="#000102"/>
<path transform="translate(1032 1108)" d="m0 0c8.38 4.92 11.4 11.4 13.8 20.5 0.652 3.21 1.13 6.44 1.58 9.69 0.132 0.912 0.265 1.82 0.401 2.76 0.433 3 0.854 5.99 1.27 8.99 0.305 2.14 0.611 4.28 0.917 6.41 3.22 22.6 6.25 45.2 9.26 67.8 1.36 10.2 2.73 20.4 4.1 30.6 0.149 1.11 0.298 2.22 0.452 3.37 3.08 23 6.24 45.9 9.44 68.9 0.171 1.22 0.341 2.45 0.517 3.71 0.31 2.22 0.62 4.44 0.931 6.66 2.29 16.4 2.29 16.4 2.38 23.8 0.0258 1.25 0.0516 2.5 0.0781 3.79-0.539 5.89-3.3 10.3-7.33 14.6-6.17 5.08-12.2 6.51-20.1 5.81-7-1.32-12.6-5.62-16.7-11.4-4.83-8.75-5.68-19.7-7-29.5-0.246-1.77-0.246-1.77-0.497-3.58-0.467-3.38-0.928-6.75-1.39-10.1-0.318-2.34-0.637-4.68-0.957-7.02-2.08-15.2-4.14-30.5-6.19-45.7-0.867-6.44-1.74-12.9-2.61-19.3-0.146-1.08-0.291-2.16-0.441-3.27-2.02-15-4.09-30-6.2-44.9-0.844-6-1.68-12-2.52-18-0.661-4.74-1.33-9.48-2.01-14.2-7.19-50.2-7.19-50.2-1.95-60.7 7.15-9.5 19.4-14.6 30.8-9.56z" fill="#000102"/>
<path transform="translate(1158 602)" d="m0 0c2.26-0.00486 4.53-0.0123 6.79-0.0221 6.13-0.0188 12.3-1.48e-5 18.4 0.0267 6.42 0.0227 12.8 0.0144 19.3 0.0105 10.8-0.00176 21.6 0.0202 32.3 0.0572 11.1 0.038 22.2 0.0522 33.2 0.041 13.4-0.0134 26.7-0.00681 40.1 0.0182 5.1 0.00928 10.2 0.011 15.3 0.00683 6.01-0.00377 12 0.0125 18 0.0441 2.2 0.00847 4.41 0.0102 6.61 0.00462 3.01-0.00646 6.02 0.0118 9.03 0.0362 1.3-0.0113 1.3-0.0113 2.63-0.0229 7.22 0.103 12.5 2.08 17.7 7.17 0.724 0.929 1.45 1.86 2.2 2.82 1.11 1.39 1.11 1.39 2.24 2.81 4.13 6.04 4.83 11.6 3.88 18.8-2.48 7.1-7.33 12.4-13.8 16-9.77 4.35-24.3 2.12-34.8 2.13-2.19 0.00463-4.37 0.00966-6.56 0.015-5.91 0.0131-11.8 0.0196-17.7 0.024-3.7 0.00294-7.4 0.00704-11.1 0.0115-11.6 0.0137-23.2 0.0233-34.7 0.0272-12 0.00404-24 0.0162-36.1 0.0424-11.7 0.0253-23.3 0.0402-35 0.0417-6.17 0.00105-12.3 0.00696-18.5 0.0248-5.79 0.0165-11.6 0.0186-17.4 0.00986-2.13-7.71e-4 -4.25 0.00359-6.38 0.0135-2.9 0.0127-5.8 0.00686-8.71-0.00358-1.26 0.0121-1.26 0.0121-2.54 0.0244-8.01-0.0674-13.9-2.71-19.8-8.18-3.97-4.69-6.93-10.5-6.84-16.8 1.76-8.84 6.56-16.2 13.8-21.6 8.54-4.96 18.9-3.68 28.4-3.6z" fill="#000102"/>
<path transform="translate(1076 701)" d="m0 0c0.832-0.00383 1.66-0.00765 2.52-0.0116 2.76-0.0102 5.52-0.00635 8.28-0.00237 1.99-0.00435 3.98-0.00954 5.97-0.0155 5.39-0.0134 10.8-0.014 16.2-0.0114 4.5 0.00107 9-0.00382 13.5-0.00861 10.6-0.0111 21.2-0.0115 31.8-0.00549 10.9 0.00605 21.9-0.00629 32.8-0.0276 9.41-0.0176 18.8-0.0236 28.2-0.0204 5.62 0.00181 11.2-8.22e-4 16.8-0.0147 5.28-0.0126 10.6-0.0106 15.8 0.00241 1.94 0.00237 3.87-3.73e-4 5.81-0.00862 2.64-0.0105 5.29-0.00237 7.93 0.0103 0.763-0.00737 1.53-0.0147 2.31-0.0223 5.1 0.0513 8.64 1.02 13.2 3.4 2.36 2.49 2.36 2.49 4.31 5.31 0.656 0.924 1.31 1.85 1.99 2.8 4.41 7.49 4.88 15.4 3.7 23.9-2.94 5.89-9.02 10.4-15 13-4.68 0.976-9.24 1.14-14 1.13-0.788 0.00227-1.58 0.00453-2.39 0.00687-2.63 0.00631-5.26 0.00551-7.9 0.00469-1.89 0.00299-3.78 0.0064-5.67 0.0102-5.13 0.00883-10.3 0.0112-15.4 0.0118-3.21 7.11e-4 -6.42 0.00285-9.63 0.0055-11.2 0.00925-22.4 0.0133-33.6 0.0125-10.4-6e-4 -20.9 0.00994-31.3 0.0257-8.97 0.0131-17.9 0.0184-26.9 0.0178-5.35-2.54e-4 -10.7 0.00255-16.1 0.0132-5.04 0.00973-10.1 0.00973-15.1 0.00248-1.84-0.00104-3.68 0.00128-5.52 0.00736-29 0.0894-29 0.0894-39.5-9.25-4.12-4.33-5.83-7.91-6.31-13.9 0.264-9.38 6.35-16.5 12.8-22.6 6.02-3.67 13.3-3.81 20.2-3.78z" fill="#000102"/>
<path transform="translate(916 896)" d="m0 0c4.14 0.00261 8.29 1.64e-4 12.4-0.00139 6.92-0.00179 13.8 5.1e-4 20.8 0.00534 7.95 0.00549 15.9 0.00363 23.9-0.00183 6.91-0.00455 13.8-0.00517 20.7-0.00256 4.09 0.00154 8.19 0.00181 12.3-0.00154 3.83-0.00292 7.66-8.37e-4 11.5 0.00489 1.39 0.00131 2.78 9.71e-4 4.17-0.00126 30.3-0.0441 30.3-0.0441 36.7 5.61 1.62 1.76 2.98 3.56 4.33 5.53 0.415 0.563 0.83 1.13 1.26 1.71 4.01 6.43 3.65 14 2.74 21.3-2.07 6.01-6.41 10.1-12 13-9.4 3.2-20 2.3-29.8 2.29-2 0.00599-4 0.0128-6 0.0204-5.41 0.0176-10.8 0.0224-16.2 0.0236-3.38 0.00142-6.76 0.0057-10.1 0.011-11.8 0.0185-23.6 0.0267-35.4 0.0251-11-0.0012-22 0.0199-33 0.0515-9.45 0.0261-18.9 0.0369-28.4 0.0356-5.64-5.1e-4 -11.3 0.00518-16.9 0.0264-5.3 0.0194-10.6 0.0195-15.9 0.00497-1.94-0.00209-3.89 0.00264-5.83 0.0147-2.66 0.0154-5.31 0.00615-7.97-0.00926-0.767 0.0103-1.53 0.0206-2.32 0.0312-6.91-0.0885-11.9-2.83-16.9-7.65-4.66-4.9-7.25-10.6-7.38-17.4 2.44-8.04 6.15-16.3 13.6-20.8 5.08-2.54 9.28-2.93 14.9-3.06 1.11-0.0307 1.11-0.0307 2.23-0.062 2.44-0.0655 4.87-0.124 7.31-0.18 0.844-0.021 1.69-0.0419 2.56-0.0635 17.6-0.434 35.2-0.531 52.8-0.517z" fill="#000102"/>
<path transform="translate(969,529)" d="m0 0c1.71 3.43 1.13 7.36 1.11 11.1 1.46e-4 0.946 2.92e-4 1.89 4.43e-4 2.87-6.98e-4 3.14-0.00849 6.28-0.0163 9.41-0.00186 2.17-0.00329 4.34-0.00429 6.52-0.00382 5.72-0.0137 11.4-0.0247 17.2-0.0102 5.84-0.0148 11.7-0.0198 17.5-0.0107 11.5-0.0278 22.9-0.0488 34.4-12.5 0.0231-25 0.0409-37.4 0.0518-5.8 0.00523-11.6 0.0123-17.4 0.0236-5.59 0.0108-11.2 0.0168-16.8 0.0194-2.14 0.00185-4.27 0.00547-6.41 0.0109-2.98 0.00722-5.97 0.00826-8.95 0.0078-1.34 0.00539-1.34 0.00539-2.7 0.0109-6.11-0.0104-6.11-0.0104-8.34-1.12-0.0232-11.4-0.041-22.7-0.0518-34.1-0.00521-5.27-0.0123-10.5-0.0236-15.8-0.0109-5.09-0.0168-10.2-0.0194-15.3-0.00184-1.94-0.00545-3.88-0.0109-5.82-0.00728-2.72-0.00826-5.44-0.0078-8.16-0.0036-0.798-0.00719-1.6-0.0109-2.42 0.0226-12.4 0.0226-12.4 3.12-15.5 2.78-0.278 2.78-0.278 6.38-0.319 0.656-0.01 1.31-0.0201 1.99-0.0304 2.18-0.031 4.37-0.048 6.55-0.0648 1.53-0.0187 3.07-0.0383 4.6-0.0587 4.06-0.0515 8.13-0.091 12.2-0.128 4.04-0.0393 8.09-0.0911 12.1-0.141 16.7-0.201 33.4-0.317 50.2-0.258z" fill="#FDFDFD"/>
<path transform="translate(1240 506)" d="m0 0c1.11-0.00708 2.21-0.0142 3.35-0.0215 1.8 0.00372 1.8 0.00372 3.63 0.00751 1.91-0.00767 1.91-0.00767 3.86-0.0155 3.48-0.0134 6.97-0.014 10.5-0.0114 2.91 0.00107 5.83-0.00382 8.74-0.00861 6.88-0.0111 13.8-0.0115 20.6-0.00549 7.08 0.00604 14.2-0.00626 21.2-0.0276 6.09-0.0177 12.2-0.0236 18.3-0.0204 3.63 0.00181 7.27-7.64e-4 10.9-0.0147 4.06-0.015 8.11-0.00557 12.2 0.00601 1.79-0.0115 1.79-0.0115 3.61-0.0232 7.64 0.0481 14.9 0.424 21 5.52 5.49 7.22 8.84 13.7 8.6 22.9-1.05 7.29-6.01 12.5-11.6 16.9-5.71 4.2-14.6 3.2-21.4 3.32-1.08 0.0209-2.16 0.0418-3.27 0.0634-3.58 0.0667-7.16 0.126-10.7 0.183-1.23 0.0205-2.46 0.041-3.73 0.0622-20.5 0.335-41 0.509-61.6 0.557-2.13 0.00624-4.26 0.0161-6.4 0.0271-4.02 0.0199-8.03 0.022-12 0.0222-1.18 0.00714-2.36 0.0143-3.57 0.0216-20.5-0.0556-20.5-0.0556-28.1-6.47-5.37-5.45-9.27-10.8-10.2-18.5 0.22-6.5 3.26-11.9 7.56-16.7 5.71-5.32 10.6-7.9 18.5-7.92z" fill="#000102"/>
<path transform="translate(1332 896)" d="m0 0c2.84 0.0401 5.67 0.0745 8.51 0.104 3.5 0.037 7 0.0832 10.5 0.136 1.94 0.0271 3.88 0.0451 5.82 0.0629 14.1 0.237 14.1 0.237 18.8 4.04 6.64 8.07 10.8 15.6 9.93 26.3-2.13 7.16-7.25 11.5-13 16-6.71 3.36-16.5 2.16-23.8 2.18-1.89 0.00986-1.89 0.00986-3.81 0.0199-4.14 0.0208-8.28 0.0314-12.4 0.0414-1.43 0.00405-2.86 0.00817-4.29 0.0124-6.72 0.019-13.4 0.0332-20.2 0.0416-7.74 0.00979-15.5 0.0362-23.2 0.0765-6 0.0302-12 0.045-18 0.0483-3.58 0.00235-7.15 0.0112-10.7 0.0365-3.99 0.0277-7.97 0.0234-12 0.0165-1.18 0.0128-2.35 0.0256-3.56 0.0388-7.96-0.0507-12.4-1.19-18.3-6.62-5.28-6.04-9.44-11.2-9.09-19.7 1.62-8.43 6.75-14.5 13.5-19.4 3.78-2.25 6.77-2.86 11.1-2.96 1.23-0.0299 1.23-0.0299 2.48-0.0604 0.885-0.0167 1.77-0.0334 2.68-0.0506 1.4-0.0312 1.4-0.0312 2.83-0.063 1.99-0.0433 3.98-0.0843 5.97-0.123 2.95-0.0582 5.9-0.124 8.85-0.191 23.8-0.516 47.6-0.33 71.4 0.0107z" fill="#000102"/>
<path transform="translate(616 532)" d="m0 0c7.15 3.86 11.2 8.82 13.8 16.5 0.759 6.6 0.539 13.2-3 19-4.65 5.68-9.43 10.5-17 11.3-7 0.266-12.3-0.223-18-4.31-0.626-0.436-1.25-0.871-1.9-1.32-6.06-4.68-9.41-11.1-10.5-18.6 0.126-6.58 3.88-13.4 8.37-18.1 9.15-7.14 17.6-9.34 28.3-4.5z" fill="#FDFDFD"/>
<path transform="translate(1151 898)" d="m0 0c6.23 3.6 11.7 9.66 13.8 16.6 0.84 6.68 1.17 13.1-2.5 19-3.64 4.65-8.21 8.36-13.5 11-8.19 0.799-15.5 1.21-22.1-4.17-5.65-5.54-10.2-11.7-10.9-19.8 1.54-8.1 5.47-15.3 12-20.3 7.3-4.1 15.2-5.7 23.2-2.25z" fill="#000102"/>
<path transform="translate(1372 704)" d="m0 0c6.04 3.9 11.4 10.5 14 17.3 1.03 7.19 0.481 12.2-3.69 18.2-5.86 6.8-10.3 10.3-19.3 11-8.07 0.131-13.8-2.41-19.7-7.96-4.17-5.27-6.64-10.8-6.44-17.7 1.4-7.42 5.52-14.7 11.6-19.2 7.83-4.71 15.2-5.6 23.6-1.58z" fill="#000102"/>
<path transform="translate(1152 508)" d="m0 0c5.73 4.17 11.1 9.84 12.7 16.9 0.601 5.92 0.95 11.1-1.75 16.5-0.743 0.825-1.48 1.65-2.25 2.5-0.619 0.866-1.24 1.73-1.88 2.62-3.95 4.42-8.24 7.08-14.2 7.68-7.31 0.263-12.3 0.0224-18.1-4.6-5.9-5.5-9.85-11.2-10.3-19.5 0.231-6.61 2.8-12.1 7.11-17 7.56-7.02 19.3-10.5 28.7-5.08z" fill="#000102"/>
<path transform="translate(1370 214)" d="m0 0c4.67 2.6 7.76 6.28 10.9 10.5 0.804 1.03 1.61 2.06 2.44 3.12 2.87 5.47 2.43 11.9 1.56 17.9-2.76 7.2-8.35 11.5-15 15-6.36 2.12-12.2 1.73-18.2-1.19-1.6-0.902-3.19-1.84-4.75-2.81-0.601-0.373-1.2-0.745-1.82-1.13-5.22-3.77-7.48-9.14-8.63-15.3-0.507-7.25 2.19-12.8 6.45-18.6 7.27-7.23 17.1-11.8 27.1-7.5z" fill="#000102"/>
<path transform="translate(1021 320)" d="m0 0c5.51 4.09 9.18 8.72 10.9 15.4 0.236 2.72 0.37 5.29 0.375 8 0.0245 0.686 0.049 1.37 0.0742 2.08 0.0348 6.08-2.09 9.46-6.2 13.8-0.558 0.469-1.12 0.938-1.69 1.42-0.556 0.48-1.11 0.959-1.68 1.45-5.83 4.03-12 4.13-18.9 3.3-7.81-2.61-13.6-6.83-17.3-14.2-2.68-6.62-2.47-12.1-0.188-18.9 2.91-6.59 7.81-10.9 14.4-13.8 6.93-2.17 13.9-2.1 20.2 1.54z" fill="#000102"/>
</svg>
